<mxfile host="65bd71144e">
    <diagram id="9omP41pYoc8_gWynK18r" name="Page-1">
        <mxGraphModel dx="801" dy="1231" grid="1" gridSize="10" guides="1" tooltips="1" connect="1" arrows="1" fold="1" page="1" pageScale="1" pageWidth="827" pageHeight="1169" math="0" shadow="0">
            <root>
                <mxCell id="0"/>
                <mxCell id="1" parent="0"/>
                <mxCell id="3" value="User" style="swimlane;whiteSpace=wrap;html=1;" parent="1" vertex="1">
                    <mxGeometry x="40" y="110" width="150" height="180" as="geometry"/>
                </mxCell>
                <mxCell id="6" value="code_user" style="text;html=1;align=center;verticalAlign=middle;resizable=0;points=[];autosize=1;strokeColor=none;fillColor=none;" parent="3" vertex="1">
                    <mxGeometry y="30" width="80" height="30" as="geometry"/>
                </mxCell>
                <mxCell id="7" value="username" style="text;html=1;align=center;verticalAlign=middle;resizable=0;points=[];autosize=1;strokeColor=none;fillColor=none;" parent="3" vertex="1">
                    <mxGeometry x="5" y="50" width="80" height="30" as="geometry"/>
                </mxCell>
                <mxCell id="8" value="password" style="text;html=1;align=center;verticalAlign=middle;resizable=0;points=[];autosize=1;strokeColor=none;fillColor=none;" parent="3" vertex="1">
                    <mxGeometry x="10" y="70" width="70" height="30" as="geometry"/>
                </mxCell>
                <mxCell id="9" value="email" style="text;html=1;align=center;verticalAlign=middle;resizable=0;points=[];autosize=1;strokeColor=none;fillColor=none;" parent="3" vertex="1">
                    <mxGeometry x="10" y="90" width="50" height="30" as="geometry"/>
                </mxCell>
                <mxCell id="52" value="role" style="text;html=1;align=center;verticalAlign=middle;resizable=0;points=[];autosize=1;strokeColor=none;fillColor=none;" parent="3" vertex="1">
                    <mxGeometry x="10" y="110" width="40" height="30" as="geometry"/>
                </mxCell>
                <mxCell id="4" value="Article" style="swimlane;whiteSpace=wrap;html=1;" parent="1" vertex="1">
                    <mxGeometry x="370" y="110" width="140" height="190" as="geometry"/>
                </mxCell>
                <mxCell id="15" value="title" style="text;html=1;align=center;verticalAlign=middle;resizable=0;points=[];autosize=1;strokeColor=none;fillColor=none;" parent="4" vertex="1">
                    <mxGeometry x="10" y="50" width="40" height="30" as="geometry"/>
                </mxCell>
                <mxCell id="11" value="code_article" style="text;html=1;align=center;verticalAlign=middle;resizable=0;points=[];autosize=1;strokeColor=none;fillColor=none;" parent="4" vertex="1">
                    <mxGeometry x="-5" y="30" width="90" height="30" as="geometry"/>
                </mxCell>
                <mxCell id="17" value="date_published" style="text;html=1;align=center;verticalAlign=middle;resizable=0;points=[];autosize=1;strokeColor=none;fillColor=none;" parent="4" vertex="1">
                    <mxGeometry x="10" y="110" width="100" height="30" as="geometry"/>
                </mxCell>
                <mxCell id="16" value="content" style="text;html=1;align=center;verticalAlign=middle;resizable=0;points=[];autosize=1;strokeColor=none;fillColor=none;" parent="4" vertex="1">
                    <mxGeometry x="10" y="80" width="60" height="30" as="geometry"/>
                </mxCell>
                <mxCell id="5" value="comment" style="swimlane;whiteSpace=wrap;html=1;" parent="1" vertex="1">
                    <mxGeometry x="370" y="540" width="170" height="225" as="geometry"/>
                </mxCell>
                <mxCell id="21" value="code_comment" style="text;html=1;align=center;verticalAlign=middle;resizable=0;points=[];autosize=1;strokeColor=none;fillColor=none;" parent="5" vertex="1">
                    <mxGeometry x="6" y="35" width="110" height="30" as="geometry"/>
                </mxCell>
                <mxCell id="24" value="content" style="text;html=1;align=center;verticalAlign=middle;resizable=0;points=[];autosize=1;strokeColor=none;fillColor=none;" parent="5" vertex="1">
                    <mxGeometry x="16" y="65" width="60" height="30" as="geometry"/>
                </mxCell>
                <mxCell id="26" value="date_posted" style="text;html=1;align=center;verticalAlign=middle;resizable=0;points=[];autosize=1;strokeColor=none;fillColor=none;" parent="5" vertex="1">
                    <mxGeometry x="16" y="97.5" width="90" height="30" as="geometry"/>
                </mxCell>
                <mxCell id="18" value="category" style="swimlane;whiteSpace=wrap;html=1;" parent="1" vertex="1">
                    <mxGeometry x="650" y="110" width="150" height="200" as="geometry"/>
                </mxCell>
                <mxCell id="19" value="code_category" style="text;html=1;align=center;verticalAlign=middle;resizable=0;points=[];autosize=1;strokeColor=none;fillColor=none;" parent="18" vertex="1">
                    <mxGeometry x="5" y="30" width="100" height="30" as="geometry"/>
                </mxCell>
                <mxCell id="20" value="category_name" style="text;html=1;align=center;verticalAlign=middle;resizable=0;points=[];autosize=1;strokeColor=none;fillColor=none;" parent="18" vertex="1">
                    <mxGeometry x="10" y="65" width="110" height="30" as="geometry"/>
                </mxCell>
                <mxCell id="27" value="" style="endArrow=classic;startArrow=classic;html=1;entryX=0.917;entryY=1.1;entryDx=0;entryDy=0;entryPerimeter=0;exitX=0.4;exitY=-0.018;exitDx=0;exitDy=0;exitPerimeter=0;" parent="1" source="5" edge="1">
                    <mxGeometry width="50" height="50" relative="1" as="geometry">
                        <mxPoint x="390" y="470" as="sourcePoint"/>
                        <mxPoint x="435.02" y="302.9999999999999" as="targetPoint"/>
                    </mxGeometry>
                </mxCell>
                <mxCell id="33" value="" style="endArrow=classic;startArrow=none;html=1;entryX=0;entryY=0.5;entryDx=0;entryDy=0;" parent="1" source="36" target="4" edge="1">
                    <mxGeometry width="50" height="50" relative="1" as="geometry">
                        <mxPoint x="190" y="205" as="sourcePoint"/>
                        <mxPoint x="280" y="160" as="targetPoint"/>
                    </mxGeometry>
                </mxCell>
                <mxCell id="34" value="" style="endArrow=classic;startArrow=none;html=1;" parent="1" source="38" edge="1">
                    <mxGeometry width="50" height="50" relative="1" as="geometry">
                        <mxPoint x="510" y="200" as="sourcePoint"/>
                        <mxPoint x="650" y="200" as="targetPoint"/>
                    </mxGeometry>
                </mxCell>
                <mxCell id="35" value="possede" style="ellipse;whiteSpace=wrap;html=1;" parent="1" vertex="1">
                    <mxGeometry x="370" y="390" width="120" height="80" as="geometry"/>
                </mxCell>
                <mxCell id="37" value="" style="endArrow=none;startArrow=classic;html=1;entryX=0;entryY=0.5;entryDx=0;entryDy=0;" parent="1" target="36" edge="1">
                    <mxGeometry width="50" height="50" relative="1" as="geometry">
                        <mxPoint x="190" y="205" as="sourcePoint"/>
                        <mxPoint x="370" y="205" as="targetPoint"/>
                    </mxGeometry>
                </mxCell>
                <mxCell id="36" value="post" style="ellipse;whiteSpace=wrap;html=1;" parent="1" vertex="1">
                    <mxGeometry x="220" y="165" width="120" height="80" as="geometry"/>
                </mxCell>
                <mxCell id="39" value="" style="endArrow=none;startArrow=classic;html=1;" parent="1" target="38" edge="1">
                    <mxGeometry width="50" height="50" relative="1" as="geometry">
                        <mxPoint x="510" y="200" as="sourcePoint"/>
                        <mxPoint x="650" y="200" as="targetPoint"/>
                    </mxGeometry>
                </mxCell>
                <mxCell id="38" value="has" style="ellipse;whiteSpace=wrap;html=1;" parent="1" vertex="1">
                    <mxGeometry x="540" y="162.5" width="70" height="75" as="geometry"/>
                </mxCell>
                <mxCell id="40" value="0,n" style="text;html=1;strokeColor=none;fillColor=none;align=center;verticalAlign=middle;whiteSpace=wrap;rounded=0;" parent="1" vertex="1">
                    <mxGeometry x="200" y="135" width="60" height="30" as="geometry"/>
                </mxCell>
                <mxCell id="41" value="1,1" style="text;html=1;strokeColor=none;fillColor=none;align=center;verticalAlign=middle;whiteSpace=wrap;rounded=0;" parent="1" vertex="1">
                    <mxGeometry x="300" y="132.5" width="60" height="30" as="geometry"/>
                </mxCell>
                <mxCell id="42" value="0,n" style="text;html=1;strokeColor=none;fillColor=none;align=center;verticalAlign=middle;whiteSpace=wrap;rounded=0;" parent="1" vertex="1">
                    <mxGeometry x="460" y="340" width="60" height="30" as="geometry"/>
                </mxCell>
                <mxCell id="43" value="1,1" style="text;html=1;strokeColor=none;fillColor=none;align=center;verticalAlign=middle;whiteSpace=wrap;rounded=0;" parent="1" vertex="1">
                    <mxGeometry x="460" y="510" width="60" height="30" as="geometry"/>
                </mxCell>
                <mxCell id="44" value="0,n" style="text;html=1;strokeColor=none;fillColor=none;align=center;verticalAlign=middle;whiteSpace=wrap;rounded=0;" parent="1" vertex="1">
                    <mxGeometry x="590" y="250" width="60" height="30" as="geometry"/>
                </mxCell>
                <mxCell id="45" value="0,n" style="text;html=1;strokeColor=none;fillColor=none;align=center;verticalAlign=middle;whiteSpace=wrap;rounded=0;" parent="1" vertex="1">
                    <mxGeometry x="510" y="250" width="60" height="30" as="geometry"/>
                </mxCell>
                <mxCell id="47" value="" style="endArrow=classic;startArrow=none;html=1;exitX=0.75;exitY=1;exitDx=0;exitDy=0;" parent="1" source="48" edge="1">
                    <mxGeometry width="50" height="50" relative="1" as="geometry">
                        <mxPoint x="205" y="510" as="sourcePoint"/>
                        <mxPoint x="360" y="620" as="targetPoint"/>
                    </mxGeometry>
                </mxCell>
                <mxCell id="49" value="" style="endArrow=none;startArrow=classic;html=1;exitX=0.75;exitY=1;exitDx=0;exitDy=0;" parent="1" source="3" target="48" edge="1">
                    <mxGeometry width="50" height="50" relative="1" as="geometry">
                        <mxPoint x="152.5" y="290" as="sourcePoint"/>
                        <mxPoint x="360" y="620" as="targetPoint"/>
                    </mxGeometry>
                </mxCell>
                <mxCell id="48" value="post" style="ellipse;whiteSpace=wrap;html=1;" parent="1" vertex="1">
                    <mxGeometry x="180" y="400" width="120" height="80" as="geometry"/>
                </mxCell>
                <mxCell id="50" value="0,n" style="text;html=1;strokeColor=none;fillColor=none;align=center;verticalAlign=middle;whiteSpace=wrap;rounded=0;" parent="1" vertex="1">
                    <mxGeometry x="110" y="320" width="60" height="30" as="geometry"/>
                </mxCell>
                <mxCell id="51" value="1,1" style="text;html=1;strokeColor=none;fillColor=none;align=center;verticalAlign=middle;whiteSpace=wrap;rounded=0;" parent="1" vertex="1">
                    <mxGeometry x="260" y="580" width="60" height="30" as="geometry"/>
                </mxCell>
            </root>
        </mxGraphModel>
    </diagram>
</mxfile>